# xmcd
#
# Track frame offsets:
#	150
#	21135
#	34567
#	56305
#	73507
#	92845
#	106632
#	120727
#	144450
#	164965
#	184112
#	204960
#
# Disc length: 2920 seconds
#
# Revision: 1
# Processed by: cddbd v1.5.1PL0 Copyright (c) Steve Scherf et al.
# Submitted via: CDex 1.50Beta5
#
DISCID=9d0b660c
DTITLE=GOING UNDER GROUND - GOING UNDER GROUND
DYEAR=2003
DGENRE=Rock
TTITLE0=桜が咲いたら
TTITLE1=黄色い帽子
TTITLE2=Heavenly
TTITLE3=伊豆あたりに
TTITLE4=シーズン
TTITLE5=あの犬
TTITLE6=君と出会う
TTITLE7=荒川わたれ
TTITLE8=HAVING YOU
TTITLE9=回転木馬
TTITLE10=ロマンチック街道
TTITLE11=を弾けば
EXTD=
EXTT0=
EXTT1=
EXTT2=
EXTT3=
EXTT4=
EXTT5=
EXTT6=
EXTT7=
EXTT8=
EXTT9=
EXTT10=
EXTT11=
PLAYORDER=
